<svg width="252" height="40" viewBox="0 0 252 40" fill="none" xmlns="http://www.w3.org/2000/svg">
<path fill-rule="evenodd" clip-rule="evenodd" d="M2.56324 14.2993C3.99087 14.5779 3.96767 15.7211 3.39314 16.6497C0.851266 20.7526 -2.3406 13.3534 2.56324 14.2993ZM2.9753 23.8168C2.60968 33.2299 2.85922 28.5233 2.22085 37.9306L1.14722 30.8969L0.775817 23.811C0.775817 23.2017 1.26909 22.7142 1.87264 22.7142C2.47619 22.7142 2.96949 23.2075 2.96949 23.811L2.9753 23.8168Z" fill="#0F377F"/>
<path fill-rule="evenodd" clip-rule="evenodd" d="M11.3035 30.4044C11.6517 30.5147 18.2095 25.1118 23.1597 24.897C28.6149 24.6591 32.9094 28.5241 32.3581 37.9256C30.1876 23.6435 20.7978 23.8582 10.5722 34.223C9.93968 35.1226 8.80804 32.9869 8.80804 32.5343C9.41159 28.6518 9.39418 28.2572 6.27197 26.3421C9.81202 26.9282 10.6535 27.6304 11.3035 30.3986" fill="#0F377F"/>
<path fill-rule="evenodd" clip-rule="evenodd" d="M39.1534 14.36C38.9851 15.1841 38.8516 16.1068 38.7414 17.105C41.8694 17.1108 45.0032 17.3023 47.458 17.726C44.6144 17.6737 41.6024 17.9233 38.6253 18.3237C38.1204 24.4985 38.5034 32.8727 38.7007 37.9217C37.778 33.0178 36.8263 24.394 36.7392 18.5907C34.8879 18.875 33.0657 19.2 31.3247 19.525C30.6108 19.6701 29.8854 19.3335 29.7055 18.7764C29.5256 18.2193 29.9551 17.6505 30.6631 17.5054C32.4447 17.3023 34.5513 17.1688 36.7334 17.1224C36.7392 16.5769 36.7566 16.0662 36.7856 15.6019C37.4298 5.10366 45.5023 -1.80234 55.5073 0.414544C46.425 0.460971 40.9931 5.38222 39.1476 14.3542" fill="#0F377F"/>
<path fill-rule="evenodd" clip-rule="evenodd" d="M62.2986 31.049C62.6468 31.1592 69.2046 25.7563 74.1549 25.5416C79.61 25.3036 83.9045 29.1687 83.3532 38.5701C81.1827 24.288 71.7929 24.5028 61.5674 34.8676C60.9348 35.7671 59.8032 33.6315 59.8032 33.1788C60.4067 29.2963 60.3893 28.9017 57.2671 26.9866C60.8071 27.5727 61.6486 28.2749 62.2986 31.0432" fill="#0F377F"/>
<path fill-rule="evenodd" clip-rule="evenodd" d="M92.0554 15.7641C93.4831 16.0427 93.4599 17.186 92.8853 18.1145C90.3435 22.2175 87.1516 14.8182 92.0554 15.7641ZM92.4675 25.2817C92.1019 34.6947 92.3514 29.9882 91.713 39.3954L90.6394 32.3618L90.268 25.2759C90.268 24.6665 90.7613 24.179 91.3648 24.179C91.9684 24.179 92.4617 24.6723 92.4617 25.2759L92.4675 25.2817Z" fill="#0F377F"/>
<path fill-rule="evenodd" clip-rule="evenodd" d="M105.704 28.9256C105.547 32.4947 105.344 35.9767 105.072 39.8707C104.799 35.9883 104.596 32.5237 104.439 28.9604C104.358 27.1556 104.294 25.3507 104.236 23.5517C102.257 23.8825 100.301 24.3003 98.4557 24.724C97.8696 24.8632 97.2719 24.5324 97.121 23.9695C96.9701 23.4124 97.3241 22.8437 97.9102 22.6986C99.7267 22.449 101.949 22.304 104.195 22.2924C104.149 20.7196 104.108 19.1469 104.068 17.5684C103.975 13.8949 103.899 10.5231 103.824 6.37373C103.824 5.74697 104.381 5.23047 105.066 5.23047C105.751 5.23047 106.308 5.74116 106.308 6.37373C106.232 10.4767 106.163 13.8136 106.07 17.4407C106.029 19.0657 105.983 20.6964 105.936 22.3214C108.031 22.3794 110.062 22.5709 111.722 22.9191C109.842 22.8785 107.88 23.0294 105.907 23.2963C105.849 25.1708 105.78 27.0453 105.698 28.9256" fill="#0F377F"/>
<path fill-rule="evenodd" clip-rule="evenodd" d="M116.424 30.9855C117.085 30.8114 123.422 25.6928 128.239 25.4781C133.694 25.2401 137.995 29.1052 137.438 38.5066C135.267 24.2246 125.877 24.4393 115.652 34.8041C115.205 35.4308 114.52 34.572 114.149 33.8465C113.975 33.5157 113.864 33.2082 113.864 33.0689C114.352 29.9409 113.998 7.8997 113.661 7.0292C113.661 6.35601 114.259 5.80469 114.99 5.80469C115.721 5.80469 116.319 6.3502 116.319 7.0292C116.18 12.2 115.333 20.2725 115.518 25.8553C115.536 26.3892 115.768 30.6141 116.331 30.9681C116.36 30.9855 116.389 30.9971 116.424 30.9855Z" fill="#0F377F"/>
<path fill-rule="evenodd" clip-rule="evenodd" d="M178.04 14.2993C179.467 14.5779 179.444 15.7211 178.869 16.6497C176.328 20.7526 173.136 13.3534 178.04 14.2993ZM178.452 23.8168C178.086 33.2299 178.336 28.5233 177.697 37.9306L176.624 30.8969L176.252 23.811C176.252 23.2017 176.745 22.7142 177.349 22.7142C177.953 22.7142 178.446 23.2075 178.446 23.811L178.452 23.8168Z" fill="#0F377F"/>
<path fill-rule="evenodd" clip-rule="evenodd" d="M148.799 33.7812C151.323 36.8802 164.195 36.944 170.532 36.8163C162.181 37.9248 150.261 37.9538 146.675 34.3789C145.723 34.6517 145.055 34.8316 144.817 34.8896C144.051 34.8896 143.436 34.4138 143.436 33.8334C143.436 33.2531 144.057 32.7772 144.817 32.7772C145.079 32.7192 145.421 32.6379 145.816 32.5451C147.342 21.0776 185.482 22.6155 148.799 33.787M148.294 31.9299C149.46 24.2056 176.057 24.4436 148.294 31.9299V31.9299Z" fill="#0F377F"/>
<path fill-rule="evenodd" clip-rule="evenodd" d="M200.68 26.7487C198.051 26.9692 195.521 27.1259 192.973 27.5902C184.46 29.1339 195.672 30.1553 202.218 31.6583C209.89 33.4168 205.352 35.0533 200.564 35.8484C194.412 36.8698 185.231 37.1135 182.858 37.009C183.218 36.9858 195.057 35.9064 199.926 34.856C205.741 33.5967 200.883 32.4882 195.956 31.6467C176.619 28.3562 192.155 25.6287 200.68 24.793C202.218 24.822 202.212 26.7777 200.68 26.7487Z" fill="#0F377F"/>
<path fill-rule="evenodd" clip-rule="evenodd" d="M213.857 30.4262C213.927 30.4495 214.24 30.1303 214.774 29.7008C223.52 22.6439 225.458 23.5435 231.842 30.3798C232.3 30.8731 232.439 30.7512 232.857 30.4321C243.425 22.2783 249.937 21.5819 251.219 37.93C248.016 24.4952 243.837 24.4894 234.947 31.703C233.885 32.5677 232.857 33.2931 232.318 33.2699C230.757 33.2119 230.112 27.5188 225.951 26.8804C222.533 26.3523 218.303 28.9928 213.132 34.2391C212.499 35.1328 211.373 33.0029 211.373 32.5561C211.977 28.6794 211.959 28.2906 208.843 26.3755C212.377 26.9616 213.213 27.6638 213.863 30.4262" fill="#0F377F"/>
<path fill-rule="evenodd" clip-rule="evenodd" d="M51.5726 15.7591C52.9264 16.0212 52.9044 17.0966 52.3596 17.97C49.9491 21.8294 46.9222 14.8693 51.5726 15.7591ZM51.9634 24.7117C51.6166 33.566 51.8533 29.1389 51.2479 37.9877L50.2298 31.3715L49.8776 24.7062C49.8776 24.1331 50.3453 23.6745 50.9177 23.6745C51.4901 23.6745 51.9578 24.1385 51.9578 24.7062L51.9634 24.7117Z" fill="#0F377F"/>
</svg>
