<svg width="97" height="31" viewBox="0 0 97 31" fill="none" xmlns="http://www.w3.org/2000/svg">
<path fill-rule="evenodd" clip-rule="evenodd" d="M3.25024 0.107092C5.06049 0.460312 5.03107 1.90999 4.30256 3.08739C1.07942 8.29003 -2.96792 -1.09239 3.25024 0.107092ZM3.77273 12.1755C3.30912 24.1114 3.62554 18.1434 2.81607 30.072L1.4547 21.1531L0.983748 12.1681C0.983748 11.3954 1.60923 10.7773 2.37454 10.7773C3.13985 10.7773 3.76536 11.4028 3.76536 12.1681L3.77273 12.1755Z" fill="#0F377F"/>
<path fill-rule="evenodd" clip-rule="evenodd" d="M31.9542 15.9018C28.6207 16.1814 25.4123 16.3801 22.1818 16.9688C11.3865 18.9262 25.6036 20.2214 33.9043 22.1273C43.6326 24.357 37.878 26.4322 31.8071 27.4403C24.0068 28.7355 12.3652 29.0445 9.35547 28.9121C9.81171 28.8826 24.8236 27.5139 30.9976 26.182C38.371 24.5851 32.2118 23.1796 25.9642 22.1126C1.44481 17.9402 21.1442 14.4815 31.9542 13.4219C33.9043 13.4587 33.8969 15.9386 31.9542 15.9018Z" fill="#0F377F"/>
<path fill-rule="evenodd" clip-rule="evenodd" d="M48.6636 20.5519C48.7519 20.5814 49.1493 20.1766 49.8263 19.6321C60.916 10.6838 63.3738 11.8244 71.4684 20.493C72.0498 21.1185 72.2264 20.964 72.7562 20.5593C86.1565 10.2202 94.413 9.33717 96.0393 30.0668C91.9773 13.0313 86.679 13.0239 75.4054 22.1708C74.0587 23.2673 72.7562 24.1871 72.0719 24.1577C70.0924 24.0841 69.2755 16.8652 63.9993 16.0557C59.665 15.3861 54.3005 18.7343 47.7438 25.3866C46.9417 26.5199 45.5141 23.8192 45.5141 23.2526C46.2794 18.3369 46.2573 17.8439 42.3057 15.4155C46.7871 16.1587 47.8468 17.0491 48.671 20.5519" fill="#0F377F"/>
</svg>
