<svg width="195" height="44" viewBox="0 0 195 44" fill="none" xmlns="http://www.w3.org/2000/svg">
<path fill-rule="evenodd" clip-rule="evenodd" d="M10.8909 29.9447C10.6929 34.4551 10.4362 38.8555 10.0915 43.7766C9.7468 38.8701 9.49013 34.4918 9.29212 29.9887C9.18944 27.7078 9.10874 25.4269 9.0354 23.1534C6.53451 23.5714 4.06298 24.0995 1.73077 24.6349C0.990042 24.8109 0.23465 24.3928 0.043966 23.6815C-0.146718 22.9774 0.300645 22.2587 1.04138 22.0753C3.33692 21.7599 6.14585 21.5766 8.9841 21.5619C8.92543 19.5744 8.87407 17.5869 8.82273 15.5921C8.70539 10.9496 8.61006 6.6886 8.51472 1.4448C8.51472 0.652725 9.21879 0 10.0842 0C10.9496 0 11.6536 0.645391 11.6536 1.4448C11.5583 6.62993 11.4703 10.847 11.353 15.4307C11.3016 17.4842 11.243 19.5451 11.1843 21.5986C13.8319 21.6719 16.3987 21.914 18.4963 22.354C16.1201 22.3027 13.6411 22.4933 11.1476 22.8307C11.0743 25.1996 10.9863 27.5685 10.8836 29.9447" fill="#0F377F"/>
<path fill-rule="evenodd" clip-rule="evenodd" d="M24.4343 32.5605C25.2704 32.3404 33.2792 25.8719 39.3664 25.6005C46.2603 25.2998 51.6948 30.1843 50.9907 42.0653C48.2478 24.0164 36.3814 24.2877 23.4589 37.3862C22.8942 38.1783 22.0288 37.0929 21.5594 36.1761C21.3394 35.7581 21.2001 35.3694 21.2001 35.1934C21.8161 31.2403 21.3687 3.38585 20.9434 2.28575C20.9434 1.43501 21.6988 0.738281 22.6228 0.738281C23.5469 0.738281 24.3023 1.42768 24.3023 2.28575C24.1263 8.82034 23.0556 19.0219 23.2902 26.0772C23.3122 26.7519 23.6056 32.0911 24.317 32.5385C24.3537 32.5605 24.3903 32.5751 24.4343 32.5605Z" fill="#0F377F"/>
<path fill-rule="evenodd" clip-rule="evenodd" d="M102.303 11.47C104.107 11.822 104.078 13.2668 103.352 14.4403C100.14 19.6254 96.106 10.2746 102.303 11.47ZM102.824 23.4978C102.362 35.3935 102.677 29.4456 101.871 41.334L100.514 32.4452L100.044 23.4904C100.044 22.7204 100.668 22.1043 101.431 22.1043C102.193 22.1043 102.817 22.7277 102.817 23.4904L102.824 23.4978Z" fill="#0F377F"/>
<path fill-rule="evenodd" clip-rule="evenodd" d="M65.3435 36.1011C68.5338 40.0175 84.8006 40.0981 92.8093 39.9368C82.2557 41.3376 67.1917 41.3743 62.6593 36.8565C61.4565 37.2012 60.6131 37.4286 60.3124 37.5019C59.3443 37.5019 58.5669 36.9005 58.5669 36.1671C58.5669 35.4337 59.3516 34.8323 60.3124 34.8323C60.6424 34.759 61.0751 34.6563 61.5738 34.539C63.5027 20.047 111.702 21.9905 65.3435 36.1085M64.7054 33.7616C66.1796 24 99.7912 24.3007 64.7054 33.7616V33.7616Z" fill="#0F377F"/>
<path fill-rule="evenodd" clip-rule="evenodd" d="M130.911 27.2098C127.589 27.4885 124.391 27.6865 121.171 28.2733C110.412 30.2241 124.582 31.5149 132.854 33.4144C142.55 35.6366 136.815 37.7048 130.764 38.7095C122.99 40.0003 111.388 40.3083 108.388 40.1763C108.843 40.147 123.804 38.7829 129.957 37.4554C137.306 35.8639 131.168 34.4632 124.941 33.3997C100.504 29.2414 120.137 25.7944 130.911 24.7383C132.854 24.775 132.847 27.2465 130.911 27.2098Z" fill="#0F377F"/>
<path fill-rule="evenodd" clip-rule="evenodd" d="M147.563 31.8483C147.651 31.8776 148.047 31.4742 148.722 30.9315C159.774 22.0134 162.224 23.1502 170.291 31.7896C170.871 32.413 171.047 32.259 171.575 31.8556C184.93 21.5513 193.159 20.6713 194.779 41.3311C190.731 24.3529 185.451 24.3456 174.215 33.4617C172.873 34.5545 171.575 35.4713 170.893 35.4419C168.92 35.3686 168.106 28.1739 162.847 27.3672C158.527 26.6998 153.181 30.0368 146.646 36.6667C145.847 37.7961 144.424 35.1046 144.424 34.5398C145.187 29.6407 145.165 29.1494 141.227 26.7291C145.693 27.4699 146.749 28.3573 147.57 31.8483" fill="#0F377F"/>
</svg>
