<svg width="317" height="51" viewBox="0 0 317 51" fill="none" xmlns="http://www.w3.org/2000/svg">
<path fill-rule="evenodd" clip-rule="evenodd" d="M3.23075 18.0166C5.03016 18.3677 5.00091 19.8087 4.27676 20.979C1.07295 26.1505 -2.95012 16.8243 3.23075 18.0166ZM3.75011 30.0126C3.28929 41.877 3.6038 35.9448 2.79919 47.8018L1.44598 38.9365L0.977851 30.0053C0.977851 29.2373 1.59958 28.6228 2.36031 28.6228C3.12103 28.6228 3.74279 29.2446 3.74279 30.0053L3.75011 30.0126Z" fill="#0F377F"/>
<path fill-rule="evenodd" clip-rule="evenodd" d="M14.2441 38.3179C14.683 38.4569 22.9486 31.6469 29.1879 31.3763C36.0637 31.0764 41.4766 35.9479 40.7817 47.7977C38.046 29.7963 26.2109 30.067 13.3225 43.1309C12.5252 44.2647 11.0988 41.5729 11.0988 41.0024C11.8596 36.1089 11.8376 35.6115 7.90234 33.1976C12.3643 33.9364 13.4249 34.8215 14.2441 38.3106" fill="#0F377F"/>
<path fill-rule="evenodd" clip-rule="evenodd" d="M49.3534 18.0996C49.1413 19.1383 48.9731 20.3013 48.8341 21.5594C52.7767 21.5667 56.7266 21.8081 59.8207 22.3421C56.2365 22.2763 52.4402 22.5908 48.6878 23.0955C48.0514 30.8783 48.5342 41.4333 48.7829 47.7971C47.6199 41.6162 46.4203 30.7466 46.3106 23.432C43.9772 23.7904 41.6804 24.2 39.486 24.6096C38.5863 24.7925 37.6719 24.3682 37.4452 23.666C37.2184 22.9638 37.7597 22.247 38.6521 22.0641C40.8977 21.8081 43.5529 21.6399 46.3032 21.5814C46.3105 20.8938 46.3325 20.2501 46.3691 19.6649C47.181 6.43273 57.3557 -2.2717 69.9661 0.522497C58.5187 0.581014 51.6722 6.78383 49.3461 18.0923" fill="#0F377F"/>
<path fill-rule="evenodd" clip-rule="evenodd" d="M78.522 39.1421C78.9608 39.2811 87.2264 32.4711 93.4658 32.2005C100.342 31.9006 105.754 36.7722 105.06 48.6219C102.324 30.6205 90.4887 30.8912 77.6003 43.9551C76.803 45.0889 75.3767 42.3971 75.3767 41.8266C76.1374 36.9331 76.1155 36.4357 72.1802 34.0218C76.6421 34.7606 77.7027 35.6457 78.522 39.1348" fill="#0F377F"/>
<path fill-rule="evenodd" clip-rule="evenodd" d="M116.027 19.8564C117.827 20.2076 117.797 21.6485 117.073 22.8189C113.869 27.9903 109.846 18.6642 116.027 19.8564ZM116.546 31.8525C116.086 43.7168 116.4 37.7847 115.596 49.6417L114.242 40.7763L113.774 31.8452C113.774 31.0771 114.396 30.4627 115.157 30.4627C115.917 30.4627 116.539 31.0844 116.539 31.8452L116.546 31.8525Z" fill="#0F377F"/>
<path fill-rule="evenodd" clip-rule="evenodd" d="M133.236 36.4438C133.038 40.9423 132.782 45.3311 132.438 50.2393C132.095 45.3458 131.839 40.9789 131.641 36.4877C131.539 34.2129 131.458 31.938 131.385 29.6705C128.891 30.0874 126.426 30.6141 124.1 31.148C123.361 31.3236 122.608 30.9066 122.417 30.1971C122.227 29.4949 122.673 28.7781 123.412 28.5952C125.702 28.2807 128.503 28.0978 131.334 28.0832C131.275 26.1009 131.224 24.1187 131.173 22.1291C131.056 17.4989 130.961 13.2491 130.866 8.01911C130.866 7.22913 131.568 6.57812 132.431 6.57812C133.294 6.57812 133.996 7.22181 133.996 8.01911C133.901 13.1906 133.814 17.3965 133.697 21.9681C133.645 24.0162 133.587 26.0717 133.528 28.1198C136.169 28.1929 138.729 28.4343 140.821 28.8732C138.451 28.822 135.979 29.0121 133.492 29.3486C133.419 31.7113 133.331 34.0739 133.228 36.4438" fill="#0F377F"/>
<path fill-rule="evenodd" clip-rule="evenodd" d="M146.743 39.0547C147.577 38.8352 155.565 32.3837 161.636 32.1131C168.512 31.8132 173.932 36.6847 173.23 48.5344C170.494 30.5331 158.659 30.8037 145.771 43.8677C145.207 44.6577 144.344 43.5751 143.876 42.6608C143.657 42.2438 143.518 41.8562 143.518 41.6806C144.132 37.738 143.686 9.95699 143.262 8.8598C143.262 8.0113 144.015 7.31641 144.937 7.31641C145.858 7.31641 146.612 8.00398 146.612 8.8598C146.436 15.3771 145.368 25.5518 145.602 32.5885C145.624 33.2615 145.917 38.5865 146.626 39.0327C146.663 39.0547 146.7 39.0693 146.743 39.0547Z" fill="#0F377F"/>
<path fill-rule="evenodd" clip-rule="evenodd" d="M224.407 18.0166C226.206 18.3677 226.177 19.8087 225.453 20.979C222.249 26.1505 218.226 16.8243 224.407 18.0166ZM224.926 30.0126C224.466 41.877 224.78 35.9448 223.975 47.8018L222.622 38.9365L222.154 30.0053C222.154 29.2373 222.776 28.6228 223.537 28.6228C224.297 28.6228 224.919 29.2446 224.919 30.0053L224.926 30.0126Z" fill="#0F377F"/>
<path fill-rule="evenodd" clip-rule="evenodd" d="M187.545 42.5824C190.727 46.4884 206.951 46.5689 214.939 46.4079C204.413 47.805 189.389 47.8416 184.868 43.3358C183.669 43.6796 182.827 43.9063 182.527 43.9795C181.562 43.9795 180.787 43.3797 180.787 42.6482C180.787 41.9168 181.569 41.3169 182.527 41.3169C182.857 41.2438 183.288 41.1414 183.786 41.0244C185.709 26.5706 233.781 28.509 187.545 42.5897M186.909 40.249C188.379 30.5132 221.902 30.8131 186.909 40.249V40.249Z" fill="#0F377F"/>
<path fill-rule="evenodd" clip-rule="evenodd" d="M252.938 33.715C249.625 33.993 246.436 34.1905 243.225 34.7757C232.494 36.7214 246.626 38.0087 254.877 39.9032C264.547 42.1196 258.827 44.1823 252.792 45.1844C245.039 46.4718 233.467 46.779 230.475 46.6473C230.929 46.6181 245.85 45.2575 251.987 43.9336C259.317 42.3463 253.194 40.9492 246.984 39.8886C222.612 35.7412 242.193 32.3033 252.938 31.25C254.877 31.2866 254.869 33.7516 252.938 33.715Z" fill="#0F377F"/>
<path fill-rule="evenodd" clip-rule="evenodd" d="M269.547 38.3413C269.635 38.3705 270.03 37.9682 270.703 37.4269C281.726 28.5323 284.169 29.6661 292.215 38.2828C292.793 38.9045 292.969 38.7509 293.496 38.3486C306.816 28.0715 315.023 27.1938 316.639 47.7991C312.601 30.8657 307.335 30.8584 296.129 39.9505C294.79 41.0404 293.496 41.9547 292.815 41.9255C290.848 41.8523 290.036 34.6766 284.791 33.872C280.483 33.2064 275.15 36.5346 268.633 43.147C267.836 44.2735 266.417 41.589 266.417 41.0258C267.177 36.1396 267.156 35.6495 263.228 33.2357C267.682 33.9744 268.735 34.8595 269.555 38.3413" fill="#0F377F"/>
<path fill-rule="evenodd" clip-rule="evenodd" d="M65.0032 19.8501C66.7096 20.1804 66.6819 21.5358 65.9952 22.6367C62.9569 27.5012 59.1418 18.7286 65.0032 19.8501ZM65.4957 31.1341C65.0587 42.2942 65.357 36.7141 64.594 47.8674L63.3107 39.5283L62.8668 31.1272C62.8668 30.4048 63.4564 29.8268 64.1778 29.8268C64.8992 29.8268 65.4888 30.4116 65.4888 31.1272L65.4957 31.1341Z" fill="#0F377F"/>
</svg>
