<svg width="316" height="28" viewBox="0 0 316 28" fill="none" xmlns="http://www.w3.org/2000/svg">
<path d="M30.78 1.83506L23.796 27.5391H21.708L16.308 8.63906C16.188 8.20706 16.068 7.79906 15.948 7.41506C15.852 7.00706 15.756 6.62306 15.66 6.26306C15.564 5.87906 15.48 5.54306 15.408 5.25506C15.336 4.94306 15.276 4.66706 15.228 4.42706C15.18 4.66706 15.132 4.93106 15.084 5.21906C15.036 5.50706 14.964 5.81906 14.868 6.15506C14.796 6.46706 14.712 6.80306 14.616 7.16306C14.52 7.52306 14.424 7.89506 14.328 8.27906L8.964 27.5391H6.912L-2.86102e-06 1.83506H2.16L6.804 19.4751C6.948 19.9791 7.068 20.4591 7.164 20.9151C7.284 21.3711 7.392 21.8151 7.488 22.2471C7.584 22.6551 7.668 23.0631 7.74 23.4711C7.836 23.8791 7.92 24.2751 7.992 24.6591C8.064 24.2511 8.136 23.8431 8.208 23.4351C8.304 23.0271 8.4 22.6071 8.496 22.1751C8.616 21.7191 8.736 21.2631 8.856 20.8071C8.976 20.3511 9.108 19.8711 9.252 19.3671L14.22 1.83506H16.308L21.42 19.4751C21.588 19.9791 21.732 20.4711 21.852 20.9511C21.972 21.4311 22.08 21.8871 22.176 22.3191C22.272 22.7271 22.356 23.1351 22.428 23.5431C22.524 23.9511 22.608 24.3471 22.68 24.7311C22.776 24.2031 22.872 23.6751 22.968 23.1471C23.088 22.5951 23.22 22.0191 23.364 21.4191C23.508 20.8191 23.664 20.1831 23.832 19.5111L28.584 1.83506H30.78ZM36.7349 8.96306C36.7349 9.44306 36.7229 9.91106 36.6989 10.3671C36.6749 10.8231 36.6509 11.2791 36.6269 11.7351H36.7709C37.1069 11.0151 37.5749 10.3791 38.1749 9.82706C38.7749 9.27506 39.4949 8.84306 40.3349 8.53106C41.1989 8.21906 42.1709 8.06306 43.2509 8.06306C44.7149 8.06306 45.9509 8.31506 46.9589 8.81906C47.9669 9.29906 48.7229 10.0551 49.2269 11.0871C49.7549 12.0951 50.0189 13.4151 50.0189 15.0471V27.5391H48.0029V15.1551C48.0029 13.3071 47.5829 11.9511 46.7429 11.0871C45.9029 10.2231 44.6669 9.79106 43.0349 9.79106C41.6429 9.79106 40.4789 10.0671 39.5429 10.6191C38.6069 11.1471 37.8989 11.9631 37.4189 13.0671C36.9629 14.1471 36.7349 15.4911 36.7349 17.0991V27.5391H34.7189V0.179061H36.7349V8.96306ZM62.8971 8.06306C65.0571 8.06306 66.6651 8.59106 67.7211 9.64706C68.7771 10.7031 69.3051 12.3831 69.3051 14.6871V27.5391H67.7571L67.3971 24.2991H67.2891C66.8331 25.0191 66.3051 25.6551 65.7051 26.2071C65.1291 26.7351 64.4211 27.1551 63.5811 27.4671C62.7651 27.7551 61.7571 27.8991 60.5571 27.8991C59.3571 27.8991 58.3131 27.6951 57.4251 27.2871C56.5371 26.8551 55.8531 26.2431 55.3731 25.4511C54.8931 24.6591 54.6531 23.6871 54.6531 22.5351C54.6531 20.6391 55.4331 19.1991 56.9931 18.2151C58.5531 17.2071 60.8211 16.6311 63.7971 16.4871L67.2891 16.3431V14.9751C67.2891 13.0791 66.9051 11.7471 66.1371 10.9791C65.3931 10.1871 64.2771 9.79106 62.7891 9.79106C61.8051 9.79106 60.8571 9.92306 59.9451 10.1871C59.0571 10.4271 58.1571 10.7751 57.2451 11.2311L56.5971 9.61106C57.4851 9.15506 58.4691 8.78306 59.5491 8.49506C60.6291 8.20706 61.7451 8.06306 62.8971 8.06306ZM64.0131 17.9991C61.5891 18.1191 59.7771 18.5511 58.5771 19.2951C57.3771 20.0151 56.7771 21.1071 56.7771 22.5711C56.7771 23.7471 57.1491 24.6471 57.8931 25.2711C58.6371 25.8711 59.6451 26.1711 60.9171 26.1711C62.9571 26.1711 64.5171 25.6071 65.5971 24.4791C66.7011 23.3511 67.2651 21.7671 67.2891 19.7271V17.8551L64.0131 17.9991ZM80.8298 26.1711C81.3578 26.1711 81.8618 26.1351 82.3418 26.0631C82.8218 25.9671 83.2418 25.8591 83.6018 25.7391V27.3951C83.2418 27.5391 82.7858 27.6591 82.2338 27.7551C81.7058 27.8511 81.1418 27.8991 80.5418 27.8991C79.4858 27.8991 78.5858 27.7071 77.8418 27.3231C77.0978 26.9151 76.5218 26.2911 76.1138 25.4511C75.7298 24.6111 75.5378 23.5311 75.5378 22.2111V10.0431H72.7298V8.89106L75.5378 8.24306L76.2938 3.81506H77.5898V8.38706H83.4938V10.0431H77.5898V22.1391C77.5898 23.4591 77.8538 24.4671 78.3818 25.1631C78.9098 25.8351 79.7258 26.1711 80.8298 26.1711ZM99.0318 8.38706V27.5391H97.0158V8.38706H99.0318ZM98.0238 1.29506C98.4798 1.29506 98.8278 1.43906 99.0678 1.72706C99.3078 1.99106 99.4278 2.36306 99.4278 2.84306C99.4278 3.34706 99.3078 3.74306 99.0678 4.03106C98.8278 4.29506 98.4798 4.42706 98.0238 4.42706C97.5918 4.42706 97.2558 4.29506 97.0158 4.03106C96.7758 3.74306 96.6558 3.34706 96.6558 2.84306C96.6558 2.36306 96.7758 1.99106 97.0158 1.72706C97.2558 1.43906 97.5918 1.29506 98.0238 1.29506ZM117.407 22.4631C117.407 23.6151 117.119 24.5991 116.543 25.4151C115.967 26.2311 115.127 26.8551 114.023 27.2871C112.919 27.6951 111.575 27.8991 109.991 27.8991C108.671 27.8991 107.495 27.7791 106.463 27.5391C105.431 27.2991 104.555 27.0111 103.835 26.6751V24.6951C104.699 25.1271 105.671 25.4871 106.751 25.7751C107.831 26.0391 108.923 26.1711 110.027 26.1711C111.947 26.1711 113.327 25.8591 114.167 25.2351C115.007 24.5871 115.427 23.7111 115.427 22.6071C115.427 21.8871 115.223 21.2991 114.815 20.8431C114.431 20.3631 113.843 19.9431 113.051 19.5831C112.283 19.1991 111.323 18.8151 110.171 18.4311C108.995 18.0231 107.951 17.6151 107.039 17.2071C106.127 16.7751 105.419 16.2351 104.915 15.5871C104.411 14.9391 104.159 14.0511 104.159 12.9231C104.159 11.3871 104.783 10.1871 106.031 9.32306C107.279 8.45906 108.947 8.02706 111.035 8.02706C112.187 8.02706 113.255 8.13506 114.239 8.35106C115.247 8.56706 116.159 8.85506 116.975 9.21506L116.255 10.9071C115.775 10.6911 115.235 10.4991 114.635 10.3311C114.035 10.1391 113.423 9.99506 112.799 9.89906C112.175 9.80306 111.551 9.75506 110.927 9.75506C109.415 9.75506 108.239 10.0191 107.399 10.5471C106.559 11.0751 106.139 11.8431 106.139 12.8511C106.139 13.6191 106.331 14.2311 106.715 14.6871C107.123 15.1191 107.711 15.4911 108.479 15.8031C109.271 16.1151 110.219 16.4751 111.323 16.8831C112.451 17.2671 113.471 17.6751 114.383 18.1071C115.319 18.5391 116.051 19.0911 116.579 19.7631C117.131 20.4351 117.407 21.3351 117.407 22.4631ZM133.59 8.38706V27.5391H131.574V8.38706H133.59ZM132.582 1.29506C133.038 1.29506 133.386 1.43906 133.626 1.72706C133.866 1.99106 133.986 2.36306 133.986 2.84306C133.986 3.34706 133.866 3.74306 133.626 4.03106C133.386 4.29506 133.038 4.42706 132.582 4.42706C132.15 4.42706 131.814 4.29506 131.574 4.03106C131.334 3.74306 131.214 3.34706 131.214 2.84306C131.214 2.36306 131.334 1.99106 131.574 1.72706C131.814 1.43906 132.15 1.29506 132.582 1.29506ZM148.51 8.02706C150.694 8.02706 152.362 8.59106 153.514 9.71906C154.666 10.8471 155.242 12.6231 155.242 15.0471V27.5391H153.226V15.1551C153.226 13.3071 152.806 11.9511 151.966 11.0871C151.126 10.2231 149.89 9.79106 148.258 9.79106C146.17 9.79106 144.598 10.4031 143.542 11.6271C142.486 12.8511 141.958 14.6751 141.958 17.0991V27.5391H139.942V8.38706H141.562L141.886 11.6991H141.994C142.354 11.0031 142.834 10.3791 143.434 9.82706C144.034 9.27506 144.754 8.84306 145.594 8.53106C146.458 8.19506 147.43 8.02706 148.51 8.02706ZM168.804 10.0431H164.232V27.5391H162.18V10.0431H158.652V8.92706L162.18 8.35106V6.40706C162.18 4.96706 162.384 3.77906 162.792 2.84306C163.224 1.88306 163.86 1.17506 164.7 0.71906C165.564 0.239061 166.632 -0.000939131 167.904 -0.000939131C168.576 -0.000939131 169.188 0.0590608 169.74 0.179061C170.292 0.275061 170.796 0.395061 171.252 0.53906L170.748 2.23106C170.34 2.08706 169.884 1.96706 169.38 1.87106C168.9 1.77506 168.408 1.72706 167.904 1.72706C166.608 1.72706 165.672 2.09906 165.096 2.84306C164.52 3.56306 164.232 4.75106 164.232 6.40706V8.38706H168.804V10.0431ZM174.492 8.38706V27.5391H172.476V8.38706H174.492ZM173.484 1.29506C173.94 1.29506 174.288 1.43906 174.528 1.72706C174.768 1.99106 174.888 2.36306 174.888 2.84306C174.888 3.34706 174.768 3.74306 174.528 4.03106C174.288 4.29506 173.94 4.42706 173.484 4.42706C173.052 4.42706 172.716 4.29506 172.476 4.03106C172.236 3.74306 172.116 3.34706 172.116 2.84306C172.116 2.36306 172.236 1.99106 172.476 1.72706C172.716 1.43906 173.052 1.29506 173.484 1.29506ZM189.396 8.02706C191.58 8.02706 193.248 8.59106 194.4 9.71906C195.552 10.8471 196.128 12.6231 196.128 15.0471V27.5391H194.112V15.1551C194.112 13.3071 193.692 11.9511 192.852 11.0871C192.012 10.2231 190.776 9.79106 189.144 9.79106C187.056 9.79106 185.484 10.4031 184.428 11.6271C183.372 12.8511 182.844 14.6751 182.844 17.0991V27.5391H180.828V8.38706H182.448L182.772 11.6991H182.88C183.24 11.0031 183.72 10.3791 184.32 9.82706C184.92 9.27506 185.64 8.84306 186.48 8.53106C187.344 8.19506 188.316 8.02706 189.396 8.02706ZM204.254 8.38706V27.5391H202.238V8.38706H204.254ZM203.246 1.29506C203.702 1.29506 204.05 1.43906 204.29 1.72706C204.53 1.99106 204.65 2.36306 204.65 2.84306C204.65 3.34706 204.53 3.74306 204.29 4.03106C204.05 4.29506 203.702 4.42706 203.246 4.42706C202.814 4.42706 202.478 4.29506 202.238 4.03106C201.998 3.74306 201.878 3.34706 201.878 2.84306C201.878 2.36306 201.998 1.99106 202.238 1.72706C202.478 1.43906 202.814 1.29506 203.246 1.29506ZM216.006 26.1711C216.534 26.1711 217.038 26.1351 217.518 26.0631C217.998 25.9671 218.418 25.8591 218.778 25.7391V27.3951C218.418 27.5391 217.962 27.6591 217.41 27.7551C216.882 27.8511 216.318 27.8991 215.718 27.8991C214.662 27.8991 213.762 27.7071 213.018 27.3231C212.274 26.9151 211.698 26.2911 211.29 25.4511C210.906 24.6111 210.714 23.5311 210.714 22.2111V10.0431H207.906V8.89106L210.714 8.24306L211.47 3.81506H212.766V8.38706H218.67V10.0431H212.766V22.1391C212.766 23.4591 213.03 24.4671 213.558 25.1631C214.086 25.8351 214.902 26.1711 216.006 26.1711ZM224.856 8.96306C224.856 9.44306 224.844 9.91106 224.82 10.3671C224.796 10.8231 224.772 11.2791 224.748 11.7351H224.892C225.228 11.0151 225.696 10.3791 226.296 9.82706C226.896 9.27506 227.616 8.84306 228.456 8.53106C229.32 8.21906 230.292 8.06306 231.372 8.06306C232.836 8.06306 234.072 8.31506 235.08 8.81906C236.088 9.29906 236.844 10.0551 237.348 11.0871C237.876 12.0951 238.14 13.4151 238.14 15.0471V27.5391H236.124V15.1551C236.124 13.3071 235.704 11.9511 234.864 11.0871C234.024 10.2231 232.788 9.79106 231.156 9.79106C229.764 9.79106 228.6 10.0671 227.664 10.6191C226.728 11.1471 226.02 11.9631 225.54 13.0671C225.084 14.1471 224.856 15.4911 224.856 17.0991V27.5391H222.84V0.179061H224.856V8.96306ZM251.486 8.02706C253.142 8.02706 254.51 8.41106 255.59 9.17906C256.694 9.92306 257.522 10.9551 258.074 12.2751C258.65 13.5951 258.938 15.1191 258.938 16.8471V18.2151H245.258C245.258 20.7831 245.846 22.7391 247.022 24.0831C248.222 25.4271 249.914 26.0991 252.098 26.0991C253.298 26.0991 254.342 26.0031 255.23 25.8111C256.118 25.6191 257.09 25.2831 258.146 24.8031V26.6751C257.186 27.1071 256.238 27.4191 255.302 27.6111C254.366 27.8031 253.274 27.8991 252.026 27.8991C250.13 27.8991 248.51 27.5031 247.166 26.7111C245.846 25.9191 244.838 24.7911 244.142 23.3271C243.47 21.8391 243.134 20.1111 243.134 18.1431C243.134 16.1751 243.458 14.4351 244.106 12.9231C244.754 11.4111 245.702 10.2231 246.95 9.35906C248.198 8.47106 249.71 8.02706 251.486 8.02706ZM251.486 9.75506C249.71 9.75506 248.282 10.3431 247.202 11.5191C246.122 12.6711 245.486 14.3391 245.294 16.5231H256.814C256.814 15.1791 256.622 14.0031 256.238 12.9951C255.854 11.9871 255.266 11.1951 254.474 10.6191C253.706 10.0431 252.71 9.75506 251.486 9.75506ZM266.129 8.38706V27.5391H264.113V8.38706H266.129ZM265.121 1.29506C265.577 1.29506 265.925 1.43906 266.165 1.72706C266.405 1.99106 266.525 2.36306 266.525 2.84306C266.525 3.34706 266.405 3.74306 266.165 4.03106C265.925 4.29506 265.577 4.42706 265.121 4.42706C264.689 4.42706 264.353 4.29506 264.113 4.03106C263.873 3.74306 263.753 3.34706 263.753 2.84306C263.753 2.36306 263.873 1.99106 264.113 1.72706C264.353 1.43906 264.689 1.29506 265.121 1.29506ZM284.505 22.4631C284.505 23.6151 284.217 24.5991 283.641 25.4151C283.065 26.2311 282.225 26.8551 281.121 27.2871C280.017 27.6951 278.673 27.8991 277.089 27.8991C275.769 27.8991 274.593 27.7791 273.561 27.5391C272.529 27.2991 271.653 27.0111 270.933 26.6751V24.6951C271.797 25.1271 272.769 25.4871 273.849 25.7751C274.929 26.0391 276.021 26.1711 277.125 26.1711C279.045 26.1711 280.425 25.8591 281.265 25.2351C282.105 24.5871 282.525 23.7111 282.525 22.6071C282.525 21.8871 282.321 21.2991 281.913 20.8431C281.529 20.3631 280.941 19.9431 280.149 19.5831C279.381 19.1991 278.421 18.8151 277.269 18.4311C276.093 18.0231 275.049 17.6151 274.137 17.2071C273.225 16.7751 272.517 16.2351 272.013 15.5871C271.509 14.9391 271.257 14.0511 271.257 12.9231C271.257 11.3871 271.881 10.1871 273.129 9.32306C274.377 8.45906 276.045 8.02706 278.133 8.02706C279.285 8.02706 280.353 8.13506 281.337 8.35106C282.345 8.56706 283.257 8.85506 284.073 9.21506L283.353 10.9071C282.873 10.6911 282.333 10.4991 281.733 10.3311C281.133 10.1391 280.521 9.99506 279.897 9.89906C279.273 9.80306 278.649 9.75506 278.025 9.75506C276.513 9.75506 275.337 10.0191 274.497 10.5471C273.657 11.0751 273.237 11.8431 273.237 12.8511C273.237 13.6191 273.429 14.2311 273.813 14.6871C274.221 15.1191 274.809 15.4911 275.577 15.8031C276.369 16.1151 277.317 16.4751 278.421 16.8831C279.549 17.2671 280.569 17.6751 281.481 18.1071C282.417 18.5391 283.149 19.0911 283.677 19.7631C284.229 20.4351 284.505 21.3351 284.505 22.4631ZM309.3 8.02706C311.22 8.02706 312.708 8.56706 313.764 9.64706C314.844 10.7271 315.384 12.4311 315.384 14.7591V27.5391H313.332V14.8311C313.332 13.1271 312.948 11.8671 312.18 11.0511C311.412 10.2111 310.368 9.79106 309.048 9.79106C307.2 9.79106 305.784 10.3311 304.8 11.4111C303.84 12.4671 303.36 14.1111 303.36 16.3431V27.5391H301.308V14.8311C301.308 13.6791 301.128 12.7311 300.768 11.9871C300.432 11.2431 299.94 10.6911 299.292 10.3311C298.668 9.97106 297.9 9.79106 296.988 9.79106C295.788 9.79106 294.768 10.0431 293.928 10.5471C293.088 11.0511 292.44 11.8071 291.984 12.8151C291.552 13.8231 291.336 15.1071 291.336 16.6671V27.5391H289.32V8.38706H290.94L291.264 11.4471H291.372C291.708 10.7991 292.14 10.2231 292.668 9.71906C293.22 9.21506 293.88 8.80706 294.648 8.49506C295.416 8.18306 296.292 8.02706 297.276 8.02706C298.692 8.02706 299.88 8.32706 300.84 8.92706C301.8 9.52706 302.472 10.4271 302.856 11.6271H303C303.552 10.4751 304.368 9.58706 305.448 8.96306C306.552 8.33906 307.836 8.02706 309.3 8.02706Z" fill="#222222"/>
</svg>
